<svg width="1981" height="161" viewBox="0 0 1981 161" fill="none" xmlns="http://www.w3.org/2000/svg">
  <path id="path1" d="M1981 0.455994H0V60.456C0 115.684 44.7715 160.456 100 160.456H1981V0.455994Z" fill="#5964E0"/>
  <mask id="mask0" mask-type="alpha" maskUnits="userSpaceOnUse" x="0" y="0" width="1981" height="161">
  <path id="path2" d="M1981 0.455994H0V60.456C0 115.684 44.7715 160.456 100 160.456H1981V0.455994Z" fill="white"/>
  </mask>
  <g mask="url(#mask0)">
  <path id="path2" opacity="0.0813802" fill-rule="evenodd" clip-rule="evenodd" d="M1717.88 -96.9683C1739.01 -120.931 1778.21 -112.598 1787.76 -82.1151L1901.88 282.048C1911.26 311.984 1884.91 340.935 1854.23 334.413L1487.74 256.513C1457.05 249.991 1444.76 212.828 1465.51 189.296L1717.88 -96.9683Z" fill="white"/>
  <path id="path3" opacity="0.0813802" fill-rule="evenodd" clip-rule="evenodd" d="M625.033 -288.886C621.915 -320.679 654.744 -343.666 683.553 -329.863L1027.71 -164.964C1056 -151.409 1059.21 -112.398 1033.51 -94.4041L726.598 120.501C700.9 138.495 665.339 122.138 662.277 90.917L625.033 -288.886Z" fill="white"/>
  <path id="path4" opacity="0.0813802" fill-rule="evenodd" clip-rule="evenodd" d="M-125.461 -33.8033C-128.578 -65.5958 -95.7496 -88.5828 -66.9407 -74.7795L277.22 90.1189C305.511 103.674 308.718 142.685 283.02 160.679L-23.8959 375.584C-49.5936 393.578 -85.1552 377.222 -88.2168 346L-125.461 -33.8033Z" fill="white"/>
  </g>
</svg>